<svg width="21" height="22" viewBox="0 0 21 22" fill="none" xmlns="http://www.w3.org/2000/svg">
<path d="M19.4 21.4458C18.44 22.0585 17.16 21.65 16.52 20.4245L14.76 17.5651H6.12L4.36 20.4245C3.56 21.8543 2.12 22.0585 1 21.0373C0.2 20.2203 -0.12 18.9948 0.04 17.9736L1.16 10.4165C1.48 7.96557 3.24 6.12736 5.16 6.12736H9.64V3.06368C9.64 1.42972 10.6 0 11.88 0H16.84C17.32 0 17.64 0.408491 17.64 1.02123C17.64 1.63396 17.32 2.04245 16.84 2.04245H12.04C11.56 2.04245 11.24 2.45094 11.24 2.85944V6.12736H15.72C17.64 6.12736 19.4 7.96557 19.72 10.4165L20.84 17.9736C21 19.4033 20.52 20.833 19.4 21.4458ZM8.04 11.2335C8.04 9.59953 6.92 8.16981 5.64 8.16981C4.36 8.16981 3.24 9.59953 3.24 11.2335C3.24 12.8675 4.36 14.2972 5.64 14.2972C6.92 14.2972 8.04 12.8675 8.04 11.2335ZM17.64 11.2335C17.64 10.6208 17.32 10.2123 16.84 10.2123H16.04V9.19104C16.04 8.57831 15.72 8.16981 15.24 8.16981C14.76 8.16981 14.44 8.57831 14.44 9.19104V10.2123H13.64C13.16 10.2123 12.84 10.6208 12.84 11.2335C12.84 11.8462 13.16 12.2547 13.64 12.2547H14.44V13.2759C14.44 13.8887 14.76 14.2972 15.24 14.2972C15.72 14.2972 16.04 13.8887 16.04 13.2759V12.2547H16.84C17.32 12.2547 17.64 11.8462 17.64 11.2335Z" fill="black" fill-opacity="0.56"/>
</svg>
