<svg width="22" height="25" viewBox="0 0 22 25" fill="none" xmlns="http://www.w3.org/2000/svg">
<path d="M6.5 24.8924V22.1266H2.16667C1.57083 22.1266 1.06094 21.856 0.637 21.3148C0.213056 20.7736 0.000722222 20.1223 0 19.3608V2.76582C0 2.00522 0.212333 1.35433 0.637 0.813152C1.06167 0.271973 1.57156 0.000921941 2.16667 0H19.5C20.0958 0 20.6061 0.271051 21.0308 0.813152C21.4554 1.35525 21.6674 2.00614 21.6667 2.76582V19.3608C21.6667 20.1214 21.4547 20.7727 21.0308 21.3148C20.6068 21.8569 20.0966 22.1275 19.5 22.1266H15.1667V24.8924H6.5Z" fill="black" fill-opacity="0.51"/>
</svg>
