<svg width="33" height="31" viewBox="0 0 33 31" fill="none" xmlns="http://www.w3.org/2000/svg">
<path d="M26.3535 24.5152C27.2211 24.5152 28.0531 24.8337 28.6665 25.4006C29.2799 25.9675 29.6245 26.7364 29.6245 27.5381C29.6245 28.3398 29.2799 29.1087 28.6665 29.6756C28.0531 30.2425 27.2211 30.5609 26.3535 30.5609C25.486 30.5609 24.654 30.2425 24.0406 29.6756C23.4272 29.1087 23.0825 28.3398 23.0825 27.5381C23.0825 25.8604 24.5381 24.5152 26.3535 24.5152ZM0.185547 0.332489H5.53363L7.071 3.35533H31.26C31.6938 3.35533 32.1098 3.51457 32.4165 3.79802C32.7232 4.08147 32.8955 4.4659 32.8955 4.86676C32.8955 5.1237 32.8138 5.38064 32.6993 5.62247L26.8442 15.4014C26.2881 16.3233 25.2087 16.9581 23.9821 16.9581H11.7976L10.3256 19.4218L10.2766 19.6031C10.2766 19.7033 10.3197 19.7994 10.3963 19.8703C10.473 19.9412 10.577 19.981 10.6855 19.981H29.6245V23.0038H9.99855C9.13102 23.0038 8.29903 22.6853 7.6856 22.1185C7.07217 21.5516 6.72755 20.7827 6.72755 19.981C6.72755 19.452 6.87474 18.9532 7.12007 18.53L9.34435 14.827L3.45655 3.35533H0.185547V0.332489ZM9.99855 24.5152C10.8661 24.5152 11.6981 24.8337 12.3115 25.4006C12.9249 25.9675 13.2695 26.7364 13.2695 27.5381C13.2695 28.3398 12.9249 29.1087 12.3115 29.6756C11.6981 30.2425 10.8661 30.5609 9.99855 30.5609C9.13102 30.5609 8.29903 30.2425 7.6856 29.6756C7.07217 29.1087 6.72755 28.3398 6.72755 27.5381C6.72755 25.8604 8.18314 24.5152 9.99855 24.5152ZM24.718 13.9353L29.2647 6.37818H8.59202L12.4518 13.9353H24.718Z" fill="black"/>
</svg>
