<svg width="17" height="34" viewBox="0 0 17 34" fill="none" xmlns="http://www.w3.org/2000/svg">
<path d="M13 2.07437C13.431 2.07437 13.8443 2.29292 14.149 2.68194C14.4538 3.07095 14.625 3.59858 14.625 4.14873V29.0411C14.625 29.5913 14.4538 30.1189 14.149 30.5079C13.8443 30.897 13.431 31.1155 13 31.1155H3.25C2.81902 31.1155 2.4057 30.897 2.10095 30.5079C1.79621 30.1189 1.625 29.5913 1.625 29.0411V4.14873C1.625 3.59858 1.79621 3.07095 2.10095 2.68194C2.4057 2.29292 2.81902 2.07437 3.25 2.07437H13ZM3.25 0C2.38805 0 1.5614 0.437098 0.951903 1.21514C0.34241 1.99317 0 3.04842 0 4.14873V29.0411C0 30.1415 0.34241 31.1967 0.951903 31.9747C1.5614 32.7528 2.38805 33.1899 3.25 33.1899H13C13.862 33.1899 14.6886 32.7528 15.2981 31.9747C15.9076 31.1967 16.25 30.1415 16.25 29.0411V4.14873C16.25 3.04842 15.9076 1.99317 15.2981 1.21514C14.6886 0.437098 13.862 0 13 0L3.25 0Z" fill="black" fill-opacity="0.56"/>
<path d="M8.125 29.0411C8.55598 29.0411 8.9693 28.8226 9.27405 28.4336C9.57879 28.0446 9.75 27.5169 9.75 26.9668C9.75 26.4166 9.57879 25.889 9.27405 25.5C8.9693 25.111 8.55598 24.8924 8.125 24.8924C7.69402 24.8924 7.2807 25.111 6.97595 25.5C6.67121 25.889 6.5 26.4166 6.5 26.9668C6.5 27.5169 6.67121 28.0446 6.97595 28.4336C7.2807 28.8226 7.69402 29.0411 8.125 29.0411Z" fill="black" fill-opacity="0.56"/>
</svg>
