<svg width="24" height="24" viewBox="0 0 24 24" fill="none" xmlns="http://www.w3.org/2000/svg">
<path fill-rule="evenodd" clip-rule="evenodd" d="M8 5.10613C8 3.7519 8.42143 2.45314 9.17157 1.49555C9.92172 0.537966 10.9391 0 12 0C13.0609 0 14.0783 0.537966 14.8284 1.49555C15.5786 2.45314 16 3.7519 16 5.10613C16 6.46037 15.5786 7.75913 14.8284 8.71672C14.0783 9.6743 13.0609 10.2123 12 10.2123C10.9391 10.2123 9.92172 9.6743 9.17157 8.71672C8.42143 7.75913 8 6.46037 8 5.10613ZM8 12.7653C6.67392 12.7653 5.40215 13.4378 4.46447 14.6348C3.52678 15.8318 3 17.4552 3 19.148C3 20.1637 3.31607 21.1378 3.87868 21.8559C4.44129 22.5741 5.20435 22.9776 6 22.9776H18C18.7956 22.9776 19.5587 22.5741 20.1213 21.8559C20.6839 21.1378 21 20.1637 21 19.148C21 17.4552 20.4732 15.8318 19.5355 14.6348C18.5979 13.4378 17.3261 12.7653 16 12.7653H8Z" fill="black"/>
</svg>
